HIERARCHY
ROOT Hips
{
    OFFSET 0.000000 0.000000 0.000000
    CHANNELS 6 Xposition Yposition Zposition Zrotation Xrotation Yrotation
    JOINT Spine
    {
        OFFSET -0.000000 7.305679 0.000000
        CHANNELS 3 Zrotation Xrotation Yrotation
        JOINT Spine1
        {
            OFFSET -0.000000 20.356625 0.000000
            CHANNELS 3 Zrotation Xrotation Yrotation
            JOINT Neck
            {
                OFFSET -0.000000 22.138498 0.000000
                CHANNELS 3 Zrotation Xrotation Yrotation
                JOINT Head
                {
                    OFFSET -0.000000 13.809516 1.781873
                    CHANNELS 3 Zrotation Xrotation Yrotation
                    End Site
                    {
                        OFFSET -0.000000 17.818729 0.000000
                    }
                }
            }
            JOINT LeftShoulder
            {
                OFFSET 3.599131 17.989975 0.023592
                CHANNELS 3 Zrotation Xrotation Yrotation
                JOINT LeftArm
                {
                    OFFSET 12.560995 0.000000 0.000000
                    CHANNELS 3 Zrotation Xrotation Yrotation
                    JOINT LeftForeArm
                    {
                        OFFSET 22.903347 0.000000 0.000000
                        CHANNELS 3 Zrotation Xrotation Yrotation
                        JOINT LeftHand
                        {
                            OFFSET 21.865294 0.000000 0.000000
                            CHANNELS 3 Zrotation Xrotation Yrotation
                            JOINT LeftHandThumb1
                            {
                                OFFSET 1.853706 -2.106484 2.949078
                                CHANNELS 3 Zrotation Xrotation Yrotation
                                JOINT LeftHandThumb2
                                {
                                    OFFSET 2.049154 0.000000 1.336405
                                    CHANNELS 3 Zrotation Xrotation Yrotation
                                    JOINT LeftHandThumb3
                                    {
                                        OFFSET 2.672809 0.000000 0.000000
                                        CHANNELS 3 Zrotation Xrotation Yrotation
                                        End Site
                                        {
                                            OFFSET 2.381303 0.000000 0.000000
                                        }
                                    }
                                }
                            }
                            JOINT LeftHandIndex1
                            {
                                OFFSET 7.583345 0.000000 2.949078
                                CHANNELS 3 Zrotation Xrotation Yrotation
                                JOINT LeftHandIndex2
                                {
                                    OFFSET 4.454682 0.000000 0.000000
                                    CHANNELS 3 Zrotation Xrotation Yrotation
                                    JOINT LeftHandIndex3
                                    {
                                        OFFSET 2.227341 0.000000 0.000000
                                        CHANNELS 3 Zrotation Xrotation Yrotation
                                        End Site
                                        {
                                            OFFSET 1.984419 0.000000 0.000000
                                        }
                                    }
                                }
                            }
                            JOINT LeftHandMiddle1
                            {
                                OFFSET 7.583345 0.000000 0.977409
                                CHANNELS 3 Zrotation Xrotation Yrotation
                                JOINT LeftHandMiddle2
                                {
                                    OFFSET 4.900151 0.000000 0.000000
                                    CHANNELS 3 Zrotation Xrotation Yrotation
                                    JOINT LeftHandMiddle3
                                    {
                                        OFFSET 2.672809 0.000000 0.000000
                                        CHANNELS 3 Zrotation Xrotation Yrotation
                                        End Site
                                        {
                                            OFFSET 2.381303 0.000000 0.000000
                                        }
                                    }
                                }
                            }
                            JOINT LeftHandRing1
                            {
                                OFFSET 7.162047 0.000000 -0.977409
                                CHANNELS 3 Zrotation Xrotation Yrotation
                                JOINT LeftHandRing2
                                {
                                    OFFSET 4.454682 0.000000 0.000000
                                    CHANNELS 3 Zrotation Xrotation Yrotation
                                    JOINT LeftHandRing3
                                    {
                                        OFFSET 2.227341 0.000000 0.000000
                                        CHANNELS 3 Zrotation Xrotation Yrotation
                                        End Site
                                        {
                                            OFFSET 1.984419 0.000000 0.000000
                                        }
                                    }
                                }
                            }
                            JOINT LeftHandPinky1
                            {
                                OFFSET 6.740750 0.000000 -2.949078
                                CHANNELS 3 Zrotation Xrotation Yrotation
                                JOINT LeftHandPinky2
                                {
                                    OFFSET 3.563746 0.000000 0.000000
                                    CHANNELS 3 Zrotation Xrotation Yrotation
                                    JOINT LeftHandPinky3
                                    {
                                        OFFSET 1.781873 0.000000 0.000000
                                        CHANNELS 3 Zrotation Xrotation Yrotation
                                        End Site
                                        {
                                            OFFSET 1.587536 0.000000 0.000000
                                        }
                                    }
                                }
                            }
                        }
                    }
                }
            }
            JOINT RightShoulder
            {
                OFFSET -3.506995 17.989975 0.023592
                CHANNELS 3 Zrotation Xrotation Yrotation
                JOINT RightArm
                {
                    OFFSET -12.560995 0.000000 0.000000
                    CHANNELS 3 Zrotation Xrotation Yrotation
                    JOINT RightForeArm
                    {
                        OFFSET -22.903347 0.000000 0.000000
                        CHANNELS 3 Zrotation Xrotation Yrotation
                        JOINT RightHand
                        {
                            OFFSET -21.865294 0.000000 0.000000
                            CHANNELS 3 Zrotation Xrotation Yrotation
                            JOINT RightHandThumb1
                            {
                                OFFSET -1.853706 -2.106484 2.949078
                                CHANNELS 3 Zrotation Xrotation Yrotation
                                JOINT RightHandThumb2
                                {
                                    OFFSET -2.049154 0.000000 1.336405
                                    CHANNELS 3 Zrotation Xrotation Yrotation
                                    JOINT RightHandThumb3
                                    {
                                        OFFSET -2.672809 0.000000 0.000000
                                        CHANNELS 3 Zrotation Xrotation Yrotation
                                        End Site
                                        {
                                            OFFSET -2.381303 0.000000 0.000000
                                        }
                                    }
                                }
                            }
                            JOINT RightHandIndex1
                            {
                                OFFSET -7.583345 0.000000 2.949078
                                CHANNELS 3 Zrotation Xrotation Yrotation
                                JOINT RightHandIndex2
                                {
                                    OFFSET -4.454682 0.000000 0.000000
                                    CHANNELS 3 Zrotation Xrotation Yrotation
                                    JOINT RightHandIndex3
                                    {
                                        OFFSET -2.227341 0.000000 0.000000
                                        CHANNELS 3 Zrotation Xrotation Yrotation
                                        End Site
                                        {
                                            OFFSET -1.984419 0.000000 0.000000
                                        }
                                    }
                                }
                            }
                            JOINT RightHandMiddle1
                            {
                                OFFSET -7.583345 0.000000 0.977409
                                CHANNELS 3 Zrotation Xrotation Yrotation
                                JOINT RightHandMiddle2
                                {
                                    OFFSET -4.900151 0.000000 0.000000
                                    CHANNELS 3 Zrotation Xrotation Yrotation
                                    JOINT RightHandMiddle3
                                    {
                                        OFFSET -2.672809 0.000000 0.000000
                                        CHANNELS 3 Zrotation Xrotation Yrotation
                                        End Site
                                        {
                                            OFFSET -2.381303 0.000000 0.000000
                                        }
                                    }
                                }
                            }
                            JOINT RightHandRing1
                            {
                                OFFSET -7.162047 0.000000 -0.977409
                                CHANNELS 3 Zrotation Xrotation Yrotation
                                JOINT RightHandRing2
                                {
                                    OFFSET -4.454682 0.000000 0.000000
                                    CHANNELS 3 Zrotation Xrotation Yrotation
                                    JOINT RightHandRing3
                                    {
                                        OFFSET -2.227341 0.000000 0.000000
                                        CHANNELS 3 Zrotation Xrotation Yrotation
                                        End Site
                                        {
                                            OFFSET -1.984419 0.000000 0.000000
                                        }
                                    }
                                }
                            }
                            JOINT RightHandPinky1
                            {
                                OFFSET -6.740750 0.000000 -2.949078
                                CHANNELS 3 Zrotation Xrotation Yrotation
                                JOINT RightHandPinky2
                                {
                                    OFFSET -3.563746 0.000000 0.000000
                                    CHANNELS 3 Zrotation Xrotation Yrotation
                                    JOINT RightHandPinky3
                                    {
                                        OFFSET -1.781873 0.000000 0.000000
                                        CHANNELS 3 Zrotation Xrotation Yrotation
                                        End Site
                                        {
                                            OFFSET -1.587536 0.000000 0.000000
                                        }
                                    }
                                }
                            }
                        }
                    }
                }
            }
        }
    }
    JOINT LeftUpLeg
    {
        OFFSET 8.909365 0.000000 0.000000
        CHANNELS 3 Zrotation Xrotation Yrotation
        JOINT LeftLeg
        {
            OFFSET -0.000000 -38.765560 0.000000
            CHANNELS 3 Zrotation Xrotation Yrotation
            JOINT LeftFoot
            {
                OFFSET -0.000000 -35.244961 0.000000
                CHANNELS 3 Zrotation Xrotation Yrotation
                JOINT LeftToeBase
                {
                    OFFSET -0.000000 -5.791087 13.364048
                    CHANNELS 3 Zrotation Xrotation Yrotation
                    End Site
                    {
                        OFFSET -0.000000 0.000000 3.563746
                    }
                }
            }
        }
    }
    JOINT RightUpLeg
    {
        OFFSET -8.909365 0.000000 0.000000
        CHANNELS 3 Zrotation Xrotation Yrotation
        JOINT RightLeg
        {
            OFFSET -0.000000 -38.765560 0.000000
            CHANNELS 3 Zrotation Xrotation Yrotation
            JOINT RightFoot
            {
                OFFSET -0.000000 -35.244961 0.000000
                CHANNELS 3 Zrotation Xrotation Yrotation
                JOINT RightToeBase
                {
                    OFFSET -0.000000 -5.791087 13.364048
                    CHANNELS 3 Zrotation Xrotation Yrotation
                    End Site
                    {
                        OFFSET -0.000000 0.000000 3.563746
                    }
                }
            }
        }
    }
}
MOTION
Frames:    5
Frame Time:    0.008333
-4.300107    74.597801    95.452827    8.504722    11.759061    8.184749    3.063583    24.818695    -5.201281    -7.883443    11.639308    -0.708242    2.605790    -30.287279    -6.734436    3.457253    -16.974258    -7.283291    8.079073    -20.693480    -36.578957    -42.344208    22.117662    -61.837673    55.290928    -5.270049    -53.243973    -3.687864    -31.971508    -19.548407    2.506665    2.069495    5.473081    -0.000000    0.000000    5.169735    -0.000000    0.000000    10.339472    19.961542    -0.282700    -0.778285    0.000000    0.000000    0.000000    0.000000    0.000000    0.000000    12.097868    -0.153817    -0.535337    -2.553560    0.000000    0.000000    -1.276780    0.000000    0.000000    4.233748    -0.059386    -0.277042    -5.107121    0.000000    0.000000    -2.553560    0.000000    0.000000    -3.869030    0.000000    0.000000    -7.738060    0.000000    0.000000    -3.869030    0.000000    0.000000    -13.818463    -19.537537    17.267149    48.002567    37.879635    17.497030    -57.663628    -50.393047    68.012657    10.856215    -55.826527    27.110535    -1.277476    -1.008126    0.736945    0.000000    0.000000    0.000000    0.000000    0.000000    0.000000    -2.467676    0.000000    0.000000    0.000000    0.000000    0.000000    0.000000    0.000000    0.000000    -1.109848    -0.005500    -1.170490    1.087875    0.000000    -0.000000    0.543937    0.000000    -0.000000    0.247584    -0.038732    -2.340521    2.175749    0.000000    -0.000000    1.087875    0.000000    -0.000000    1.645140    -0.101941    -3.544835    3.296590    0.000000    -0.000000    1.648295    0.000000    -0.000000    22.114147    -24.958853    5.211716    1.272984    26.658129    14.492382    -14.435283    10.171495    -12.770477    0.185031    0.736438    -0.365553    -18.143705    -41.140839    -12.164596    9.294238    56.125740    -17.635006    1.630894    -24.663521    4.616487    -0.025828    -0.862046    -0.046959    
-4.337407    74.500725    95.774223    8.363647    11.212999    8.800975    2.939002    24.483189    -6.032624    -7.850795    11.086440    -1.039593    3.669095    -29.880493    -6.052194    3.371265    -16.375660    -6.744848    7.854897    -20.130297    -36.882969    -42.450371    22.458187    -59.740696    57.613979    -7.867391    -54.873463    -3.992818    -31.424442    -19.461086    2.428095    1.933119    5.217043    -0.000000    0.000000    4.918366    -0.000000    0.000000    9.836731    19.033358    -0.320205    -0.928102    0.000000    0.000000    0.000000    0.000000    0.000000    0.000000    11.389824    -0.173262    -0.637136    -2.726179    0.000000    0.000000    -1.363089    0.000000    0.000000    3.745683    -0.066326    -0.329211    -5.452358    0.000000    0.000000    -2.726179    0.000000    0.000000    -4.130573    0.000000    0.000000    -8.261147    0.000000    0.000000    -4.130573    0.000000    0.000000    -14.501828    -19.709745    16.587196    48.308586    39.996639    18.944340    -57.629917    -50.843369    68.265182    9.717479    -54.793621    27.000233    -1.249940    -1.104386    0.901597    0.000000    0.000000    0.000000    0.000000    0.000000    0.000000    -2.115813    0.000000    0.000000    0.000000    0.000000    0.000000    0.000000    0.000000    0.000000    -0.561834    -0.021446    -1.208348    1.712918    0.000000    -0.000000    0.856459    0.000000    -0.000000    0.991349    -0.075646    -2.415671    3.425836    0.000000    -0.000000    1.712918    0.000000    -0.000000    2.590039    -0.165678    -3.657573    5.190660    0.000000    -0.000000    2.595330    0.000000    -0.000000    22.100723    -25.110264    6.465842    1.493124    28.300209    13.432159    -13.409975    7.049667    -13.623929    0.197858    0.706891    -0.400649    -17.665277    -40.449615    -11.326059    9.673613    56.496265    -18.135849    1.694795    -25.145548    3.835083    -0.008741    -0.863192    -0.074128    
-4.363372    74.425583    96.112503    8.164707    10.601853    9.236890    2.864629    24.125381    -7.085576    -7.947534    10.552707    -1.427212    4.863897    -29.368601    -5.103314    3.346152    -15.658075    -5.937860    7.462193    -19.511599    -37.107700    -43.055901    22.326033    -56.815186    59.559963    -10.736206    -56.941727    -4.356905    -30.949635    -19.340427    2.359029    1.805195    4.982350    -0.000000    0.000000    4.693568    -0.000000    0.000000    9.387136    18.051481    -0.339911    -1.042829    0.000000    0.000000    0.000000    0.000000    0.000000    0.000000    10.647697    -0.182794    -0.714457    -2.894949    0.000000    0.000000    -1.447474    0.000000    0.000000    3.243176    -0.069303    -0.368578    -5.789897    0.000000    0.000000    -2.894949    0.000000    0.000000    -4.386286    0.000000    0.000000    -8.772571    0.000000    0.000000    -4.386286    0.000000    0.000000    -15.137619    -20.120857    16.091824    48.210533    41.978889    21.307299    -59.216057    -50.133572    67.078049    8.802292    -54.319164    26.832890    -1.265236    -1.190880    1.023376    0.000000    0.000000    0.000000    0.000000    0.000000    0.000000    -1.923052    0.000000    0.000000    0.000000    0.000000    0.000000    0.000000    0.000000    0.000000    -0.207338    -0.031742    -1.184018    2.163870    0.000000    -0.000000    1.081935    0.000000    -0.000000    1.507356    -0.098911    -2.366556    4.327739    0.000000    -0.000000    2.163870    0.000000    -0.000000    3.272178    -0.205075    -3.582267    6.557182    0.000000    -0.000000    3.278590    0.000000    -0.000000    22.165947    -25.133930    7.774166    1.741407    30.080830    12.431024    -12.760443    3.713765    -14.203896    0.200793    0.654783    -0.414388    -16.980499    -39.703232    -10.286217    10.098039    56.737621    -18.716486    1.748267    -25.557594    3.144546    0.008622    -0.861798    -0.101470    
-4.375865    74.377937    96.466461    7.917155    9.925889    9.484709    2.829310    23.782114    -8.271682    -8.138587    9.991812    -1.850365    6.092902    -28.729919    -3.986985    3.367406    -14.821529    -4.945560    6.950178    -18.922380    -37.230633    -44.231476    21.741201    -53.195335    61.056892    -13.711280    -59.373653    -4.683995    -30.576811    -19.181015    2.278781    1.697976    4.759755    -0.000000    0.000000    4.491090    -0.000000    0.000000    8.982181    17.078846    -0.346990    -1.129241    0.000000    0.000000    0.000000    0.000000    0.000000    0.000000    9.921295    -0.185409    -0.772168    -3.044576    0.000000    0.000000    -1.522288    0.000000    0.000000    2.762921    -0.069580    -0.397747    -6.089150    0.000000    0.000000    -3.044576    0.000000    0.000000    -4.612993    0.000000    0.000000    -9.225986    0.000000    0.000000    -4.612993    0.000000    0.000000    -15.706134    -20.692848    15.749159    47.670757    43.830196    24.490730    -61.538464    -48.538986    65.110977    8.029673    -54.046261    26.525322    -1.281568    -1.264012    1.123962    0.000000    0.000000    0.000000    0.000000    0.000000    0.000000    -1.866974    0.000000    0.000000    0.000000    0.000000    0.000000    0.000000    0.000000    0.000000    -0.051122    -0.034358    -1.097250    2.401068    0.000000    -0.000000    1.200534    0.000000    -0.000000    1.763740    -0.103458    -2.192862    4.802134    0.000000    -0.000000    2.401067    0.000000    -0.000000    3.631872    -0.210891    -3.318803    7.275961    0.000000    -0.000000    3.637981    0.000000    -0.000000    22.296654    -25.009764    9.064780    1.965735    31.942810    11.624219    -12.474823    0.393061    -14.574795    0.192503    0.587338    -0.402553    -16.130449    -38.890556    -9.129783    10.501286    56.846561    -19.284929    1.786605    -25.893099    2.561534    0.024554    -0.859055    -0.126407    
-4.373908    74.363472    96.833984    7.635175    9.196254    9.546145    2.805150    23.490843    -9.490339    -8.366926    9.344663    -2.287939    7.260157    -27.926085    -2.806975    3.424549    -13.919365    -3.854168    6.372927    -18.391357    -37.254185    -45.909569    20.732351    -49.084026    62.029297    -16.699741    -62.051525    -4.937816    -30.333376    -18.995247    2.175515    1.615008    4.539511    -0.000000    0.000000    4.302140    -0.000000    0.000000    8.604280    16.173494    -0.343335    -1.183635    0.000000    0.000000    0.000000    0.000000    0.000000    0.000000    9.257738    -0.182339    -0.807947    -3.158584    0.000000    0.000000    -1.579292    0.000000    0.000000    2.341119    -0.067754    -0.415610    -6.317169    0.000000    0.000000    -3.158583    0.000000    0.000000    -4.785733    0.000000    0.000000    -9.571465    0.000000    0.000000    -4.785733    0.000000    0.000000    -16.208578    -21.338518    15.487003    46.668400    45.600956    28.418804    -63.709904    -46.380630    63.017773    7.327118    -53.641376    26.042082    -1.256722    -1.332006    1.243643    0.000000    0.000000    0.000000    0.000000    0.000000    0.000000    -1.891240    0.000000    0.000000    0.000000    0.000000    0.000000    0.000000    0.000000    0.000000    -0.046234    -0.030553    -0.957483    2.443009    0.000000    -0.000000    1.221504    0.000000    -0.000000    1.798006    -0.091912    -1.913488    4.886017    0.000000    -0.000000    2.443008    0.000000    -0.000000    3.696794    -0.187265    -2.895871    7.403056    0.000000    -0.000000    3.701528    0.000000    -0.000000    22.471664    -24.731724    10.285351    2.104583    33.827202    11.149983    -12.503692    -2.691561    -14.865831    0.174730    0.511355    -0.368464    -15.171887    -38.008492    -7.956978    10.809661    56.826210    -19.739958    1.806400    -26.146103    2.099316    0.037439    -0.856620    -0.146549    
